# xmcd
#
# Track frame offsets: 
#        150
#        18115
#        32685
#        45820
#        60397
#        78155
#        94700
#        113227
#        129882
#        148447
#
# Disc length: 2211 seconds
#
# Revision: 0
# Processed by: cddbd v1.4PL0 Copyright (c) Steve Scherf et al.
# Submitted via: ExactAudioCopy v0.90b3
#
DISCID=7008a10a
DTITLE=Collin Raye - Super Hits
DYEAR=1900
DGENRE=Country
TTITLE0=Little Rock
TTITLE1=In This Life
TTITLE2=My Kind Of Girl
TTITLE3=That Was A River
TTITLE4=Not That Different
TTITLE5=I Can Still Feel You
TTITLE6=One Boy, One Girl
TTITLE7=Couldn't Last A Moment
TTITLE8=If I Were You
TTITLE9=Love, Me
EXTD=
EXTT0=
EXTT1=
EXTT2=
EXTT3=
EXTT4=
EXTT5=
EXTT6=
EXTT7=
EXTT8=
EXTT9=
PLAYORDER=
